<svg xmlns="http://www.w3.org/2000/svg" xmlns:xlink="http://www.w3.org/1999/xlink" width="500" zoomAndPan="magnify" viewBox="0 0 375 374.999991" height="500" preserveAspectRatio="xMidYMid meet" version="1.0"><defs><g/><clipPath id="4fe3667766"><path d="M 63.488281 180 L 159 180 L 159 190 L 63.488281 190 Z M 63.488281 180 " clip-rule="nonzero"/></clipPath><clipPath id="9ba8c99aec"><path d="M 63.488281 236 L 159 236 L 159 244.527344 L 63.488281 244.527344 Z M 63.488281 236 " clip-rule="nonzero"/></clipPath><clipPath id="0726cdfa29"><path d="M 216 180 L 311.738281 180 L 311.738281 190 L 216 190 Z M 216 180 " clip-rule="nonzero"/></clipPath><clipPath id="239f0677ee"><path d="M 216 236 L 311.738281 236 L 311.738281 244.527344 L 216 244.527344 Z M 216 236 " clip-rule="nonzero"/></clipPath><clipPath id="bafbf99c44"><path d="M 175.023438 111.027344 L 199.773438 111.027344 L 199.773438 138 L 175.023438 138 Z M 175.023438 111.027344 " clip-rule="nonzero"/></clipPath></defs><path fill="#f5b651" d="M 163 184.253906 C 162.574219 183.777344 162.191406 183.34375 162.214844 182.640625 C 162.257812 181.558594 162.953125 179.089844 163.972656 177.640625 C 165.265625 175.804688 169.992188 171.589844 169.992188 171.589844 L 183.796875 159.378906 L 196.421875 147.148438 C 196.421875 147.148438 201.816406 141.828125 203.785156 139.886719 C 204.226562 139.449219 204.464844 138.84375 204.433594 138.222656 C 204.355469 136.488281 204.308594 132.867188 205.121094 131.0625 C 206.230469 128.609375 208.769531 126.296875 210.871094 124.480469 C 213.113281 122.539062 214.917969 121.144531 217.347656 119.511719 C 219.601562 118 222.554688 116.230469 225.039062 115.867188 C 226.78125 115.609375 228.402344 115.878906 229.957031 117.296875 C 231.378906 118.851562 231.648438 120.476562 231.390625 122.214844 C 231.023438 124.699219 229.257812 127.652344 227.742188 129.90625 C 226.113281 132.339844 224.71875 134.144531 222.777344 136.386719 C 220.960938 138.488281 218.648438 141.027344 216.195312 142.132812 C 214.386719 142.949219 210.765625 142.898438 209.035156 142.824219 C 208.414062 142.792969 207.808594 143.027344 207.371094 143.472656 C 205.429688 145.4375 200.109375 150.835938 200.109375 150.835938 L 187.878906 163.460938 L 175.667969 177.261719 C 175.667969 177.261719 171.453125 181.992188 169.617188 183.285156 C 168.167969 184.304688 165.699219 184.996094 164.613281 185.039062 C 163.910156 185.066406 163.476562 184.683594 163 184.253906 C 162.570312 183.859375 163.398438 184.683594 163 184.253906 Z M 163 184.253906 " fill-opacity="1" fill-rule="evenodd"/><path fill="#f5b651" d="M 211.992188 184.25 C 212.417969 183.773438 212.800781 183.339844 212.777344 182.636719 C 212.734375 181.550781 212.039062 179.082031 211.019531 177.636719 C 209.726562 175.800781 205 171.585938 205 171.585938 L 191.195312 159.375 L 178.570312 147.144531 C 178.570312 147.144531 173.449219 142.089844 171.367188 140.039062 C 170.824219 139.503906 170.535156 138.765625 170.566406 138.007812 C 170.636719 136.207031 170.652344 132.792969 169.871094 131.054688 C 168.761719 128.605469 163.859375 124.472656 163.859375 124.472656 L 151.183594 112.664062 C 150.296875 112.109375 149.03125 113.179688 149.738281 114.074219 L 158.207031 123.425781 L 162.535156 128.675781 C 163.292969 129.617188 162.070312 130.734375 161.195312 130.089844 C 161.195312 130.089844 149.035156 119.386719 146.546875 117.195312 C 146.277344 116.960938 145.894531 116.902344 145.570312 117.050781 C 145.222656 117.207031 144.949219 117.484375 144.792969 117.828125 C 144.644531 118.15625 144.703125 118.535156 144.9375 118.804688 C 147.128906 121.292969 157.832031 133.457031 157.832031 133.457031 C 158.472656 134.328125 157.355469 135.550781 156.417969 134.796875 L 151.164062 130.464844 L 141.816406 121.996094 C 140.921875 121.289062 139.851562 122.558594 140.402344 123.441406 L 152.214844 136.121094 C 152.214844 136.121094 156.34375 141.023438 158.796875 142.128906 C 160.535156 142.914062 163.949219 142.898438 165.75 142.824219 C 166.507812 142.792969 167.246094 143.082031 167.777344 143.625 C 169.832031 145.707031 174.882812 150.832031 174.882812 150.832031 L 187.113281 163.453125 L 199.324219 177.257812 C 199.324219 177.257812 203.539062 181.988281 205.378906 183.277344 C 206.824219 184.300781 209.292969 184.992188 210.378906 185.035156 C 211.082031 185.058594 211.515625 184.675781 211.992188 184.25 C 212.421875 183.851562 211.59375 184.679688 211.992188 184.25 Z M 211.992188 184.25 " fill-opacity="1" fill-rule="evenodd"/><path fill="#f5b651" d="M 110.488281 162.292969 C 111.285156 162.128906 113.367188 161.660156 115.441406 160.921875 C 116.554688 160.535156 117.675781 160.078125 118.558594 159.527344 C 119.550781 158.921875 120.332031 158.148438 120.820312 157.246094 C 121.335938 156.285156 121.597656 155.21875 121.519531 154.121094 C 121.441406 152.925781 121.101562 151.964844 120.582031 151.214844 C 119.894531 150.21875 119.003906 149.53125 118.164062 149.144531 C 117.285156 148.710938 116.332031 148.617188 115.480469 148.839844 C 114.539062 149.085938 113.699219 149.625 113.296875 150.464844 C 112.878906 151.308594 112.875 152.1875 113.171875 152.867188 C 113.546875 153.722656 114.296875 154.296875 115.109375 154.027344 C 115.253906 153.96875 115.417969 154.039062 115.476562 154.179688 C 115.539062 154.332031 115.472656 154.496094 115.328125 154.550781 C 114.214844 155.136719 112.96875 154.527344 112.214844 153.394531 C 111.617188 152.480469 111.402344 151.214844 111.789062 149.878906 C 112.214844 148.476562 113.355469 147.386719 114.769531 146.777344 C 116.082031 146.214844 117.640625 146.167969 119.15625 146.648438 C 120.460938 147.082031 121.910156 147.925781 123.078125 149.285156 C 124.019531 150.382812 124.710938 151.859375 125 153.734375 C 125.269531 155.535156 124.984375 157.316406 124.253906 158.945312 C 123.5625 160.476562 122.410156 161.847656 120.859375 162.972656 C 119.789062 163.734375 118.417969 164.421875 117.035156 165.019531 C 116.617188 165.195312 116.195312 165.359375 115.78125 165.523438 C 116.90625 166.203125 118.074219 166.90625 119.351562 167.644531 C 121.441406 168.839844 123.816406 170.136719 126.734375 171.601562 C 129.339844 172.902344 131.921875 173.816406 134.300781 174.386719 C 137.398438 175.160156 140.136719 175.382812 142.105469 175.230469 C 143.492188 175.113281 145.03125 174.585938 146.394531 173.875 C 147.820312 173.125 149.089844 172.199219 149.675781 171.214844 C 150.265625 170.253906 150.628906 168.921875 150.761719 167.539062 C 150.890625 166.167969 150.84375 164.761719 150.421875 163.628906 C 149.980469 162.386719 149.136719 160.875 147.890625 159.714844 C 146.800781 158.699219 145.453125 157.914062 143.820312 157.878906 C 142.078125 157.832031 140.726562 159.460938 140.476562 160.96875 C 140.289062 162.117188 140.722656 163.195312 142.113281 163.535156 C 142.28125 163.558594 142.394531 163.722656 142.367188 163.886719 C 142.339844 164.050781 142.183594 164.167969 142.015625 164.132812 C 139.542969 163.910156 138.929688 161.753906 139.460938 159.703125 C 139.960938 157.785156 141.601562 156.0625 143.730469 155.816406 C 145.976562 155.582031 147.96875 156.402344 149.625 157.609375 C 151.425781 158.921875 152.746094 160.78125 153.507812 162.328125 C 154.238281 163.875 154.566406 165.828125 154.511719 167.773438 C 154.457031 169.796875 153.925781 171.765625 153.136719 173.21875 C 152.289062 174.738281 150.507812 176.332031 148.367188 177.527344 C 146.511719 178.558594 144.386719 179.269531 142.480469 179.457031 C 140.164062 179.679688 136.933594 179.492188 133.277344 178.640625 C 130.601562 178.007812 127.699219 177.011719 124.761719 175.570312 C 121.746094 174.074219 119.289062 172.75 117.128906 171.507812 C 113.015625 169.144531 110 167.105469 106.195312 164.890625 C 103.003906 163.019531 99.296875 161.402344 95.695312 160.839844 C 93.300781 160.464844 90.957031 160.523438 88.882812 161.414062 C 87.21875 162.105469 86.054688 163.277344 85.335938 164.609375 C 84.722656 165.734375 84.390625 166.964844 84.328125 168.113281 L 84.324219 168.242188 C 84.324219 168.277344 84.320312 168.324219 84.320312 168.371094 L 84.316406 168.476562 C 84.316406 168.828125 84.339844 169.15625 84.390625 169.480469 C 84.6875 171.449219 85.734375 173.382812 87.261719 174.796875 C 88.777344 176.191406 90.730469 177.128906 92.902344 177.058594 C 94.179688 177.023438 95.171875 176.566406 95.847656 175.886719 C 96.71875 175.007812 97.136719 173.851562 97 172.9375 C 96.90625 172.328125 96.613281 171.847656 96.199219 171.578125 C 95.738281 171.273438 95.164062 171.179688 94.675781 171.4375 C 94.457031 171.566406 94.179688 171.496094 94.050781 171.273438 C 93.925781 171.0625 94 170.78125 94.214844 170.652344 C 94.988281 170.148438 95.953125 170.171875 96.773438 170.59375 C 97.492188 170.96875 98.078125 171.695312 98.332031 172.667969 C 98.660156 173.945312 98.277344 175.6875 97.152344 177.058594 C 96.265625 178.136719 94.90625 178.957031 93.0625 179.191406 C 90.246094 179.515625 87.59375 178.558594 85.476562 176.894531 C 84.347656 176.015625 83.390625 174.925781 82.648438 173.722656 C 81.902344 174.925781 80.945312 176.015625 79.816406 176.894531 C 77.699219 178.558594 75.046875 179.515625 72.230469 179.191406 C 70.386719 178.957031 69.027344 178.136719 68.144531 177.058594 C 67.015625 175.6875 66.632812 173.945312 66.960938 172.667969 C 67.214844 171.695312 67.800781 170.96875 68.519531 170.59375 C 69.339844 170.171875 70.304688 170.148438 71.078125 170.652344 C 71.296875 170.78125 71.367188 171.0625 71.242188 171.273438 C 71.113281 171.496094 70.835938 171.566406 70.621094 171.4375 C 70.128906 171.179688 69.554688 171.273438 69.09375 171.578125 C 68.679688 171.847656 68.386719 172.328125 68.292969 172.9375 C 68.15625 173.851562 68.574219 175.007812 69.445312 175.886719 C 70.121094 176.566406 71.113281 177.023438 72.390625 177.058594 C 74.566406 177.128906 76.515625 176.191406 78.03125 174.796875 C 79.5625 173.382812 80.605469 171.449219 80.902344 169.480469 C 80.917969 169.386719 80.921875 169.050781 80.929688 168.628906 C 80.882812 167.949219 80.898438 167.246094 80.984375 166.542969 C 80.992188 166.472656 81 166.414062 81.003906 166.378906 C 81.160156 165.21875 81.488281 164.050781 82.011719 162.9375 C 83.003906 160.816406 84.726562 158.933594 87.242188 157.738281 C 89.980469 156.472656 93.105469 156.191406 96.3125 156.625 C 100.449219 157.1875 104.730469 158.957031 108.414062 161.0625 C 109.128906 161.472656 109.816406 161.882812 110.488281 162.292969 Z M 142.839844 154.25 C 142.839844 154.25 144.21875 154.15625 146.117188 154.519531 C 146.835938 154.65625 147.613281 154.878906 148.433594 155.183594 C 149.121094 155.441406 149.8125 155.792969 150.519531 156.226562 C 152.339844 157.328125 154.128906 159.109375 155.316406 162.164062 C 156.351562 164.644531 156.5 166.835938 156.320312 168.675781 C 156.226562 169.644531 156.054688 170.523438 155.835938 171.308594 C 155.175781 173.640625 154.183594 175.054688 154.183594 175.054688 C 153.976562 175.265625 153.976562 175.605469 154.183594 175.816406 C 154.394531 176.027344 154.734375 176.015625 154.941406 175.816406 C 154.941406 175.816406 156.589844 174.574219 157.824219 172.070312 C 158.253906 171.203125 158.597656 170.171875 158.800781 169.015625 C 159.1875 166.824219 158.984375 164.167969 157.824219 161.15625 C 156.292969 157.445312 154.078125 155.21875 151.753906 154.015625 C 151.011719 153.628906 150.257812 153.359375 149.519531 153.171875 C 148.707031 152.960938 147.929688 152.84375 147.191406 152.808594 C 144.550781 152.679688 142.636719 153.359375 142.636719 153.359375 C 142.390625 153.40625 142.234375 153.652344 142.289062 153.910156 C 142.34375 154.15625 142.589844 154.308594 142.839844 154.25 Z M 142.609375 167.84375 C 142.609375 167.84375 141.023438 167.5625 139.027344 166.765625 C 137.554688 166.179688 135.90625 165.277344 134.503906 163.933594 C 132.769531 162.28125 131.476562 159.890625 131.8125 156.214844 C 131.984375 153.792969 133.128906 152.070312 134.617188 150.828125 C 135.390625 150.183594 136.253906 149.65625 137.125 149.226562 C 137.753906 148.910156 138.382812 148.617188 138.996094 148.371094 C 141.707031 147.269531 144.082031 146.871094 144.082031 146.871094 C 144.375 146.859375 144.609375 146.613281 144.597656 146.308594 C 144.589844 146.015625 144.339844 145.78125 144.042969 145.792969 C 144.042969 145.792969 141.421875 145.570312 138.339844 146.285156 C 137.601562 146.449219 136.851562 146.683594 136.105469 146.988281 C 135.007812 147.445312 133.945312 148.054688 132.984375 148.816406 C 130.9375 150.417969 129.402344 152.75 129.117188 155.992188 C 128.792969 160.722656 130.476562 163.863281 132.855469 165.804688 C 134.300781 166.976562 135.980469 167.714844 137.542969 168.148438 C 140.269531 168.910156 142.566406 168.769531 142.566406 168.769531 C 142.820312 168.78125 143.035156 168.582031 143.046875 168.324219 C 143.058594 168.078125 142.863281 167.855469 142.609375 167.84375 Z M 78.335938 167.597656 C 78.335938 167.597656 78.34375 166.132812 78.851562 164.144531 C 79.207031 162.75 79.851562 161.132812 80.972656 159.5625 C 81.421875 158.933594 81.945312 158.300781 82.578125 157.703125 C 83.804688 156.554688 85.417969 155.523438 87.578125 154.820312 C 90.433594 153.839844 93.113281 153.792969 95.421875 154.0625 C 96.578125 154.191406 97.640625 154.402344 98.597656 154.632812 C 101.425781 155.3125 103.253906 156.214844 103.253906 156.214844 C 103.496094 156.390625 103.832031 156.332031 104.003906 156.085938 C 104.175781 155.851562 104.117188 155.511719 103.875 155.335938 C 103.875 155.335938 102.210938 153.78125 99.273438 152.550781 C 98.253906 152.128906 97.078125 151.789062 95.789062 151.554688 C 93.148438 151.085938 90.039062 151.179688 86.722656 152.257812 C 84.957031 152.855469 83.488281 153.617188 82.285156 154.496094 C 80.78125 155.605469 79.652344 156.882812 78.875 158.21875 C 77.949219 159.796875 77.476562 161.4375 77.273438 162.902344 C 76.894531 165.652344 77.421875 167.726562 77.421875 167.726562 C 77.457031 167.972656 77.6875 168.148438 77.941406 168.125 C 78.191406 168.089844 78.371094 167.855469 78.335938 167.597656 Z M 127.820312 152.679688 C 127.820312 152.679688 128.351562 151.519531 129.351562 150.007812 C 129.683594 149.519531 130.070312 148.992188 130.507812 148.441406 C 131.109375 147.691406 131.8125 146.917969 132.746094 146.296875 C 133.726562 145.605469 134.707031 145.136719 135.605469 144.808594 C 136.277344 144.554688 136.90625 144.390625 137.46875 144.238281 C 139.25 143.722656 140.410156 143.558594 140.410156 143.558594 C 140.699219 143.617188 140.980469 143.429688 141.039062 143.136719 C 141.097656 142.84375 140.910156 142.5625 140.621094 142.503906 C 140.621094 142.503906 139.785156 142.117188 138.296875 141.941406 C 137.820312 141.882812 137.296875 141.871094 136.710938 141.917969 C 135.996094 141.988281 135.21875 142.1875 134.394531 142.457031 C 133.378906 142.808594 132.308594 143.335938 131.21875 144.0625 C 130.335938 144.683594 129.585938 145.382812 128.988281 146.132812 C 128.558594 146.683594 128.179688 147.234375 127.90625 147.808594 C 127.515625 148.628906 127.269531 149.414062 127.128906 150.125 C 126.839844 151.566406 126.910156 152.539062 126.910156 152.539062 C 126.871094 152.785156 127.042969 153.019531 127.292969 153.066406 C 127.542969 153.101562 127.78125 152.925781 127.820312 152.679688 Z M 127.820312 152.679688 " fill-opacity="1" fill-rule="evenodd"/><g clip-path="url(#4fe3667766)"><path fill="#f5b651" d="M 133.9375 188.992188 C 133.9375 188.992188 128.253906 188.804688 120.5 188.664062 C 116.222656 188.582031 111.316406 188.511719 106.390625 188.476562 C 104.363281 188.464844 102.335938 188.464844 100.34375 188.476562 C 98.746094 188.488281 97.167969 188.488281 95.640625 188.511719 C 91.480469 188.570312 87.675781 188.617188 84.667969 188.734375 C 80.554688 188.875 77.949219 189.085938 77.949219 189.085938 C 77.921875 189.085938 77.902344 189.105469 77.902344 189.128906 C 77.902344 189.152344 77.921875 189.175781 77.949219 189.175781 C 77.949219 189.175781 80.554688 189.375 84.667969 189.527344 C 87.675781 189.632812 91.480469 189.679688 95.640625 189.738281 C 97.167969 189.761719 98.746094 189.773438 100.34375 189.773438 C 102.335938 189.785156 104.363281 189.796875 106.390625 189.773438 C 111.316406 189.75 116.222656 189.667969 120.5 189.585938 C 128.253906 189.445312 133.9375 189.269531 133.9375 189.269531 C 134.019531 189.269531 134.082031 189.199219 134.082031 189.128906 C 134.082031 189.046875 134.019531 188.992188 133.9375 188.992188 Z M 152.730469 189.027344 C 152.730469 189.027344 151.523438 188.886719 149.855469 188.78125 C 148.941406 188.722656 147.894531 188.664062 146.84375 188.640625 C 146.410156 188.628906 145.972656 188.640625 145.550781 188.640625 C 145.207031 188.640625 144.871094 188.652344 144.542969 188.664062 C 143.652344 188.710938 142.839844 188.746094 142.199219 188.828125 C 141.296875 188.945312 140.761719 189.097656 140.761719 189.097656 C 140.742188 189.097656 140.730469 189.105469 140.730469 189.128906 C 140.730469 189.144531 140.742188 189.164062 140.761719 189.164062 C 140.761719 189.164062 141.296875 189.304688 142.199219 189.421875 C 142.839844 189.503906 143.652344 189.539062 144.542969 189.585938 C 144.871094 189.597656 145.207031 189.609375 145.550781 189.609375 C 145.972656 189.621094 146.410156 189.621094 146.84375 189.621094 C 147.894531 189.585938 148.941406 189.539062 149.855469 189.46875 C 151.523438 189.363281 152.730469 189.234375 152.730469 189.234375 C 152.785156 189.234375 152.835938 189.1875 152.835938 189.128906 C 152.835938 189.074219 152.785156 189.027344 152.730469 189.027344 Z M 71.144531 186.015625 L 68.261719 188.898438 C 68.117188 189.046875 67.921875 189.128906 67.714844 189.128906 C 67.511719 189.128906 67.316406 189.046875 67.171875 188.898438 C 66.324219 188.054688 64.703125 186.4375 63.855469 185.582031 C 63.710938 185.441406 63.628906 185.242188 63.628906 185.042969 C 63.628906 184.832031 63.710938 184.644531 63.855469 184.492188 C 64.703125 183.652344 66.324219 182.023438 67.171875 181.179688 C 67.316406 181.039062 67.511719 180.957031 67.714844 180.957031 C 67.921875 180.957031 68.117188 181.039062 68.261719 181.179688 L 71.144531 184.0625 L 157.679688 184.0625 C 158.214844 184.0625 158.65625 184.503906 158.65625 185.042969 C 158.65625 185.582031 158.214844 186.015625 157.679688 186.015625 Z M 71.144531 186.015625 " fill-opacity="1" fill-rule="evenodd"/></g><g clip-path="url(#9ba8c99aec)"><path fill="#f5b651" d="M 71.144531 241.222656 L 68.261719 244.101562 C 68.117188 244.253906 67.921875 244.335938 67.714844 244.335938 C 67.511719 244.335938 67.316406 244.253906 67.171875 244.101562 C 66.324219 243.261719 64.703125 241.644531 63.855469 240.789062 C 63.710938 240.648438 63.628906 240.449219 63.628906 240.25 C 63.628906 240.039062 63.710938 239.851562 63.855469 239.699219 C 64.703125 238.859375 66.324219 237.230469 67.171875 236.386719 C 67.316406 236.246094 67.511719 236.164062 67.714844 236.164062 C 67.921875 236.164062 68.117188 236.246094 68.261719 236.386719 L 71.144531 239.265625 L 157.679688 239.265625 C 158.214844 239.265625 158.65625 239.710938 158.65625 240.25 C 158.65625 240.789062 158.214844 241.222656 157.679688 241.222656 Z M 71.144531 241.222656 " fill-opacity="1" fill-rule="evenodd"/></g><path fill="#f5b651" d="M 264.496094 162.292969 C 263.703125 162.128906 261.621094 161.660156 259.546875 160.921875 C 258.429688 160.535156 257.308594 160.078125 256.429688 159.527344 C 255.433594 158.921875 254.65625 158.148438 254.164062 157.246094 C 253.648438 156.285156 253.390625 155.21875 253.46875 154.121094 C 253.546875 152.925781 253.886719 151.964844 254.40625 151.214844 C 255.089844 150.21875 255.980469 149.53125 256.820312 149.144531 C 257.703125 148.710938 258.65625 148.617188 259.503906 148.839844 C 260.449219 149.085938 261.289062 149.625 261.691406 150.464844 C 262.105469 151.308594 262.109375 152.1875 261.8125 152.867188 C 261.441406 153.722656 260.691406 154.296875 259.875 154.027344 C 259.734375 153.96875 259.566406 154.039062 259.507812 154.179688 C 259.445312 154.332031 259.515625 154.496094 259.660156 154.550781 C 260.773438 155.136719 262.015625 154.527344 262.769531 153.394531 C 263.367188 152.480469 263.585938 151.214844 263.195312 149.878906 C 262.773438 148.476562 261.632812 147.386719 260.214844 146.777344 C 258.90625 146.214844 257.34375 146.167969 255.832031 146.648438 C 254.527344 147.082031 253.074219 147.925781 251.910156 149.285156 C 250.964844 150.382812 250.273438 151.859375 249.984375 153.734375 C 249.71875 155.535156 250.003906 157.316406 250.734375 158.945312 C 251.425781 160.476562 252.574219 161.847656 254.125 162.972656 C 255.195312 163.734375 256.570312 164.421875 257.949219 165.019531 C 258.371094 165.195312 258.792969 165.359375 259.207031 165.523438 C 258.082031 166.203125 256.910156 166.90625 255.632812 167.644531 C 253.542969 168.839844 251.167969 170.136719 248.25 171.601562 C 245.644531 172.902344 243.0625 173.816406 240.6875 174.386719 C 237.589844 175.160156 234.851562 175.382812 232.878906 175.230469 C 231.496094 175.113281 229.957031 174.585938 228.59375 173.875 C 227.167969 173.125 225.894531 172.199219 225.308594 171.214844 C 224.722656 170.253906 224.355469 168.921875 224.226562 167.539062 C 224.097656 166.167969 224.140625 164.761719 224.5625 163.628906 C 225.007812 162.386719 225.847656 160.875 227.09375 159.714844 C 228.183594 158.699219 229.53125 157.914062 231.167969 157.878906 C 232.910156 157.832031 234.261719 159.460938 234.507812 160.96875 C 234.699219 162.117188 234.265625 163.195312 232.871094 163.535156 C 232.703125 163.558594 232.589844 163.722656 232.621094 163.886719 C 232.644531 164.050781 232.804688 164.167969 232.972656 164.132812 C 235.445312 163.910156 236.054688 161.753906 235.527344 159.703125 C 235.027344 157.785156 233.382812 156.0625 231.253906 155.816406 C 229.011719 155.582031 227.019531 156.402344 225.363281 157.609375 C 223.5625 158.921875 222.242188 160.78125 221.480469 162.328125 C 220.746094 163.875 220.421875 165.828125 220.472656 167.773438 C 220.53125 169.796875 221.058594 171.765625 221.847656 173.21875 C 222.695312 174.738281 224.476562 176.332031 226.617188 177.527344 C 228.476562 178.558594 230.597656 179.269531 232.507812 179.457031 C 234.820312 179.679688 238.050781 179.492188 241.707031 178.640625 C 244.382812 178.007812 247.289062 177.011719 250.226562 175.570312 C 253.242188 174.074219 255.699219 172.75 257.859375 171.507812 C 261.972656 169.144531 264.988281 167.105469 268.792969 164.890625 C 271.984375 163.019531 275.6875 161.402344 279.292969 160.839844 C 281.683594 160.464844 284.03125 160.523438 286.105469 161.414062 C 287.769531 162.105469 288.929688 163.277344 289.652344 164.609375 C 290.261719 165.734375 290.597656 166.964844 290.660156 168.113281 L 290.664062 168.242188 C 290.664062 168.277344 290.664062 168.324219 290.664062 168.371094 L 290.667969 168.476562 C 290.671875 168.828125 290.644531 169.15625 290.59375 169.480469 C 290.296875 171.449219 289.253906 173.382812 287.722656 174.796875 C 286.207031 176.191406 284.257812 177.128906 282.082031 177.058594 C 280.804688 177.023438 279.816406 176.566406 279.140625 175.886719 C 278.269531 175.007812 277.847656 173.851562 277.988281 172.9375 C 278.078125 172.328125 278.375 171.847656 278.785156 171.578125 C 279.246094 171.273438 279.820312 171.179688 280.3125 171.4375 C 280.527344 171.566406 280.808594 171.496094 280.933594 171.273438 C 281.058594 171.0625 280.988281 170.78125 280.773438 170.652344 C 280 170.148438 279.03125 170.171875 278.210938 170.59375 C 277.492188 170.96875 276.910156 171.695312 276.65625 172.667969 C 276.328125 173.945312 276.710938 175.6875 277.835938 177.058594 C 278.71875 178.136719 280.082031 178.957031 281.921875 179.191406 C 284.738281 179.515625 287.390625 178.558594 289.511719 176.894531 C 290.636719 176.015625 291.59375 174.925781 292.339844 173.722656 C 293.085938 174.925781 294.042969 176.015625 295.167969 176.894531 C 297.285156 178.558594 299.941406 179.515625 302.753906 179.191406 C 304.597656 178.957031 305.960938 178.136719 306.84375 177.058594 C 307.96875 175.6875 308.351562 173.945312 308.023438 172.667969 C 307.769531 171.695312 307.1875 170.96875 306.464844 170.59375 C 305.644531 170.171875 304.679688 170.148438 303.90625 170.652344 C 303.691406 170.78125 303.617188 171.0625 303.746094 171.273438 C 303.871094 171.496094 304.152344 171.566406 304.367188 171.4375 C 304.859375 171.179688 305.429688 171.273438 305.894531 171.578125 C 306.304688 171.847656 306.601562 172.328125 306.691406 172.9375 C 306.832031 173.851562 306.410156 175.007812 305.539062 175.886719 C 304.863281 176.566406 303.875 177.023438 302.597656 177.058594 C 300.421875 177.128906 298.46875 176.191406 296.953125 174.796875 C 295.425781 173.382812 294.382812 171.449219 294.082031 169.480469 C 294.070312 169.386719 294.0625 169.050781 294.058594 168.628906 C 294.105469 167.949219 294.085938 167.246094 294 166.542969 C 293.996094 166.472656 293.988281 166.414062 293.980469 166.378906 C 293.824219 165.21875 293.496094 164.050781 292.976562 162.9375 C 291.984375 160.816406 290.257812 158.933594 287.746094 157.738281 C 285.007812 156.472656 281.882812 156.191406 278.675781 156.625 C 274.535156 157.1875 270.257812 158.957031 266.574219 161.0625 C 265.855469 161.472656 265.167969 161.882812 264.496094 162.292969 Z M 232.148438 154.25 C 232.148438 154.25 230.765625 154.15625 228.867188 154.519531 C 228.148438 154.65625 227.375 154.878906 226.554688 155.183594 C 225.867188 155.441406 225.171875 155.792969 224.464844 156.226562 C 222.644531 157.328125 220.855469 159.109375 219.667969 162.164062 C 218.636719 164.644531 218.484375 166.835938 218.667969 168.675781 C 218.761719 169.644531 218.929688 170.523438 219.152344 171.308594 C 219.808594 173.640625 220.800781 175.054688 220.800781 175.054688 C 221.011719 175.265625 221.011719 175.605469 220.800781 175.816406 C 220.589844 176.027344 220.25 176.015625 220.042969 175.816406 C 220.042969 175.816406 218.398438 174.574219 217.160156 172.070312 C 216.730469 171.203125 216.386719 170.171875 216.183594 169.015625 C 215.800781 166.824219 216 164.167969 217.160156 161.15625 C 218.695312 157.445312 220.910156 155.21875 223.230469 154.015625 C 223.976562 153.628906 224.726562 153.359375 225.46875 153.171875 C 226.277344 152.960938 227.058594 152.84375 227.792969 152.808594 C 230.433594 152.679688 232.347656 153.359375 232.347656 153.359375 C 232.597656 153.40625 232.753906 153.652344 232.699219 153.910156 C 232.640625 154.15625 232.394531 154.308594 232.148438 154.25 Z M 232.378906 167.84375 C 232.378906 167.84375 233.960938 167.5625 235.960938 166.765625 C 237.429688 166.179688 239.082031 165.277344 240.484375 163.933594 C 242.214844 162.28125 243.511719 159.890625 243.175781 156.214844 C 243 153.792969 241.855469 152.070312 240.367188 150.828125 C 239.59375 150.183594 238.734375 149.65625 237.863281 149.226562 C 237.230469 148.910156 236.605469 148.617188 235.988281 148.371094 C 233.277344 147.269531 230.90625 146.871094 230.90625 146.871094 C 230.609375 146.859375 230.378906 146.613281 230.390625 146.308594 C 230.398438 146.015625 230.644531 145.78125 230.941406 145.792969 C 230.941406 145.792969 233.566406 145.570312 236.648438 146.285156 C 237.382812 146.449219 238.136719 146.683594 238.878906 146.988281 C 239.976562 147.445312 241.039062 148.054688 242 148.816406 C 244.046875 150.417969 245.585938 152.75 245.871094 155.992188 C 246.195312 160.722656 244.511719 163.863281 242.128906 165.804688 C 240.6875 166.976562 239.007812 167.714844 237.445312 168.148438 C 234.71875 168.910156 232.421875 168.769531 232.421875 168.769531 C 232.167969 168.78125 231.949219 168.582031 231.9375 168.324219 C 231.925781 168.078125 232.125 167.855469 232.378906 167.84375 Z M 296.652344 167.597656 C 296.652344 167.597656 296.640625 166.132812 296.136719 164.144531 C 295.78125 162.75 295.136719 161.132812 294.015625 159.5625 C 293.5625 158.933594 293.039062 158.300781 292.40625 157.703125 C 291.183594 156.554688 289.570312 155.523438 287.40625 154.820312 C 284.554688 153.839844 281.871094 153.792969 279.566406 154.0625 C 278.40625 154.191406 277.34375 154.402344 276.390625 154.632812 C 273.5625 155.3125 271.730469 156.214844 271.730469 156.214844 C 271.488281 156.390625 271.152344 156.332031 270.984375 156.085938 C 270.8125 155.851562 270.867188 155.511719 271.109375 155.335938 C 271.109375 155.335938 272.777344 153.78125 275.714844 152.550781 C 276.734375 152.128906 277.910156 151.789062 279.199219 151.554688 C 281.835938 151.085938 284.945312 151.179688 288.261719 152.257812 C 290.03125 152.855469 291.5 153.617188 292.699219 154.496094 C 294.203125 155.605469 295.335938 156.882812 296.113281 158.21875 C 297.035156 159.796875 297.511719 161.4375 297.710938 162.902344 C 298.089844 165.652344 297.5625 167.726562 297.5625 167.726562 C 297.527344 167.972656 297.296875 168.148438 297.046875 168.125 C 296.792969 168.089844 296.617188 167.855469 296.652344 167.597656 Z M 247.167969 152.679688 C 247.167969 152.679688 246.636719 151.519531 245.636719 150.007812 C 245.304688 149.519531 244.917969 148.992188 244.480469 148.441406 C 243.878906 147.691406 243.175781 146.917969 242.242188 146.296875 C 241.257812 145.605469 240.28125 145.136719 239.378906 144.808594 C 238.710938 144.554688 238.082031 144.390625 237.519531 144.238281 C 235.738281 143.722656 234.578125 143.558594 234.578125 143.558594 C 234.285156 143.617188 234.003906 143.429688 233.945312 143.136719 C 233.886719 142.84375 234.074219 142.5625 234.367188 142.503906 C 234.367188 142.503906 235.199219 142.117188 236.691406 141.941406 C 237.164062 141.882812 237.691406 141.871094 238.273438 141.917969 C 238.992188 141.988281 239.769531 142.1875 240.589844 142.457031 C 241.609375 142.808594 242.679688 143.335938 243.769531 144.0625 C 244.648438 144.683594 245.402344 145.382812 245.996094 146.132812 C 246.429688 146.683594 246.804688 147.234375 247.078125 147.808594 C 247.46875 148.628906 247.714844 149.414062 247.859375 150.125 C 248.148438 151.566406 248.078125 152.539062 248.078125 152.539062 C 248.117188 152.785156 247.945312 153.019531 247.691406 153.066406 C 247.441406 153.101562 247.207031 152.925781 247.167969 152.679688 Z M 247.167969 152.679688 " fill-opacity="1" fill-rule="evenodd"/><g clip-path="url(#0726cdfa29)"><path fill="#f5b651" d="M 241.046875 188.992188 C 241.046875 188.992188 246.730469 188.804688 254.484375 188.664062 C 258.761719 188.582031 263.667969 188.511719 268.59375 188.476562 C 270.621094 188.464844 272.652344 188.464844 274.640625 188.476562 C 276.242188 188.488281 277.816406 188.488281 279.34375 188.511719 C 283.503906 188.570312 287.3125 188.617188 290.320312 188.734375 C 294.429688 188.875 297.039062 189.085938 297.039062 189.085938 C 297.0625 189.085938 297.082031 189.105469 297.082031 189.128906 C 297.082031 189.152344 297.0625 189.175781 297.039062 189.175781 C 297.039062 189.175781 294.429688 189.375 290.320312 189.527344 C 287.3125 189.632812 283.503906 189.679688 279.34375 189.738281 C 277.816406 189.761719 276.242188 189.773438 274.640625 189.773438 C 272.652344 189.785156 270.621094 189.796875 268.59375 189.773438 C 263.667969 189.75 258.761719 189.667969 254.484375 189.585938 C 246.730469 189.445312 241.046875 189.269531 241.046875 189.269531 C 240.96875 189.269531 240.90625 189.199219 240.90625 189.128906 C 240.90625 189.046875 240.96875 188.992188 241.046875 188.992188 Z M 222.257812 189.027344 C 222.257812 189.027344 223.464844 188.886719 225.128906 188.78125 C 226.042969 188.722656 227.089844 188.664062 228.144531 188.640625 C 228.578125 188.628906 229.011719 188.640625 229.4375 188.640625 C 229.777344 188.640625 230.117188 188.652344 230.441406 188.664062 C 231.332031 188.710938 232.144531 188.746094 232.789062 188.828125 C 233.6875 188.945312 234.222656 189.097656 234.222656 189.097656 C 234.242188 189.097656 234.257812 189.105469 234.257812 189.128906 C 234.257812 189.144531 234.242188 189.164062 234.222656 189.164062 C 234.222656 189.164062 233.6875 189.304688 232.789062 189.421875 C 232.144531 189.503906 231.332031 189.539062 230.441406 189.585938 C 230.117188 189.597656 229.777344 189.609375 229.4375 189.609375 C 229.011719 189.621094 228.578125 189.621094 228.144531 189.621094 C 227.089844 189.585938 226.042969 189.539062 225.128906 189.46875 C 223.464844 189.363281 222.257812 189.234375 222.257812 189.234375 C 222.199219 189.234375 222.152344 189.1875 222.152344 189.128906 C 222.152344 189.074219 222.199219 189.027344 222.257812 189.027344 Z M 303.839844 186.015625 L 306.726562 188.898438 C 306.871094 189.046875 307.066406 189.128906 307.269531 189.128906 C 307.476562 189.128906 307.671875 189.046875 307.816406 188.898438 C 308.660156 188.054688 310.285156 186.4375 311.128906 185.582031 C 311.273438 185.441406 311.355469 185.242188 311.355469 185.042969 C 311.355469 184.832031 311.273438 184.644531 311.128906 184.492188 C 310.285156 183.652344 308.660156 182.023438 307.816406 181.179688 C 307.671875 181.039062 307.476562 180.957031 307.269531 180.957031 C 307.066406 180.957031 306.871094 181.039062 306.726562 181.179688 L 303.839844 184.0625 L 217.308594 184.0625 C 216.769531 184.0625 216.332031 184.503906 216.332031 185.042969 C 216.332031 185.582031 216.769531 186.015625 217.308594 186.015625 Z M 303.839844 186.015625 " fill-opacity="1" fill-rule="evenodd"/></g><g clip-path="url(#239f0677ee)"><path fill="#f5b651" d="M 303.839844 241.222656 L 306.726562 244.101562 C 306.871094 244.253906 307.066406 244.335938 307.269531 244.335938 C 307.476562 244.335938 307.671875 244.253906 307.816406 244.101562 C 308.660156 243.261719 310.285156 241.644531 311.128906 240.789062 C 311.273438 240.648438 311.355469 240.449219 311.355469 240.25 C 311.355469 240.039062 311.273438 239.851562 311.128906 239.699219 C 310.285156 238.859375 308.660156 237.230469 307.816406 236.386719 C 307.671875 236.246094 307.476562 236.164062 307.269531 236.164062 C 307.066406 236.164062 306.871094 236.246094 306.726562 236.386719 L 303.839844 239.265625 L 217.308594 239.265625 C 216.769531 239.265625 216.332031 239.710938 216.332031 240.25 C 216.332031 240.789062 216.769531 241.222656 217.308594 241.222656 Z M 303.839844 241.222656 " fill-opacity="1" fill-rule="evenodd"/></g><g fill="#f3d06b" fill-opacity="1"><g transform="translate(99.769913, 224.957292)"><g><path d="M 14.375 -17.125 C 15.609375 -19.328125 16.921875 -21.375 18.203125 -23.15625 C 18.75 -21.8125 21.296875 -20.609375 23.125 -20.609375 L 28.203125 -24.75 L 27.46875 -25.875 C 24.984375 -24.015625 24.328125 -28.390625 21 -28.390625 C 17.890625 -28.390625 13.4375 -20.71875 8.984375 -11.078125 C 8.90625 -14.25 8.984375 -18.25 9.109375 -21.421875 C 9.1875 -25.140625 8.359375 -26.6875 6.046875 -28.390625 L -0.921875 -22.546875 L -0.265625 -21.296875 C 2.015625 -22.734375 2.90625 -22 2.984375 -19.59375 L 2.984375 -6.78125 C 2.984375 -3.328125 4.296875 -1.078125 6.046875 0 L 12.46875 -5.234375 L 11.578125 -6.4375 C 10.21875 -5.46875 9.6875 -5.734375 9.375 -6.8125 C 9.875 -8.09375 10.421875 -9.328125 10.96875 -10.53125 C 12.9375 -6.734375 16.96875 -0.03125 18.984375 0 L 26.65625 -5.5 L 25.71875 -6.859375 C 22 -4.109375 17.4375 -12.703125 14.375 -17.125 Z M 14.375 -17.125 "/></g></g></g><g fill="#f3d06b" fill-opacity="1"><g transform="translate(132.571887, 224.957292)"><g><path d="M 9.0625 -6.546875 L 9.0625 -11.9375 L 16.03125 -11.9375 L 19.21875 -14.796875 L 19.21875 -16.46875 L 9.0625 -16.46875 L 9.0625 -23.125 C 10.890625 -22.890625 12.515625 -21.890625 15.765625 -21.890625 L 22.546875 -27.421875 L 22 -28.234375 C 18.78125 -26.34375 15.53125 -29.015625 12.078125 -28.28125 L 8.71875 -25.5625 C 8.328125 -26.875 7.59375 -27.84375 6 -28.390625 L -0.921875 -22.546875 L -0.3125 -21.296875 C 1.96875 -22.734375 2.90625 -22 2.9375 -19.5625 L 2.984375 -19.5625 L 2.984375 -3.984375 C 2.9375 -2.25 2.4375 -1.890625 1.78125 -0.859375 L 2.71875 0 C 5.765625 -1.9375 8.640625 0 14.015625 0 L 21.421875 -6.625 L 20.5625 -7.46875 C 16.8125 -5.1875 13.59375 -6.578125 9.0625 -6.546875 Z M 9.0625 -6.546875 "/></g></g></g><g fill="#f3d06b" fill-opacity="1"><g transform="translate(159.952136, 224.957292)"><g><path d="M 7.828125 -22.890625 C 10.96875 -23.828125 15.71875 -21.8125 13.984375 -19.828125 L 15.140625 -18.9375 L 21.453125 -25.609375 C 20.453125 -28.359375 13.015625 -29.25 10.453125 -28.125 C 10.453125 -28.125 1.671875 -22.5 1.96875 -18.09375 C 2.203125 -14.40625 12.46875 -11.5 14.484375 -7.515625 C 14.796875 -6.703125 14.71875 -5.765625 14.453125 -4.796875 C 10 -5.5 5.734375 -7.546875 7.28125 -9.6875 L 6.125 -10.375 L 0.46875 -5.078125 C 0.46875 -1.703125 5.03125 0.109375 8.40625 0.109375 C 13.859375 0.109375 21.453125 -5.6875 21.453125 -9.796875 C 21.453125 -14.25 9.25 -18.40625 7.828125 -22.890625 Z M 7.828125 -22.890625 "/></g></g></g><g fill="#f3d06b" fill-opacity="1"><g transform="translate(186.945121, 224.957292)"><g><path d="M 25.328125 -6.4375 C 23.515625 -5.109375 22.9375 -6.125 22.9375 -8.359375 L 22.890625 -21.421875 C 22.9375 -25.140625 22.15625 -26.6875 19.828125 -28.390625 L 12.828125 -22.546875 L 13.484375 -21.1875 C 15.796875 -22.625 16.6875 -21.890625 16.765625 -19.484375 L 16.765625 -14.6875 L 9.140625 -14.6875 C 9.109375 -14.6875 9.140625 -21.421875 9.140625 -21.421875 C 9.1875 -25.140625 8.40625 -26.6875 6.078125 -28.390625 L -0.921875 -22.546875 L -0.265625 -21.265625 C 2.015625 -22.703125 2.9375 -21.96875 3.015625 -19.5625 L 3.015625 -6.78125 C 2.984375 -3.328125 4.34375 -1.078125 6.078125 0 L 12.515625 -5.234375 L 11.578125 -6.4375 C 9.765625 -5.109375 9.375 -6.125 9.1875 -8.359375 C 9.109375 -8.90625 9.0625 -9.484375 9.03125 -10.140625 L 15.265625 -10.140625 L 16.765625 -11.8125 L 16.765625 -6.78125 C 16.734375 -3.328125 18.09375 -1.078125 19.828125 0 L 26.265625 -5.234375 Z M 25.328125 -6.4375 "/></g></g></g><g fill="#f3d06b" fill-opacity="1"><g transform="translate(217.810769, 224.957292)"><g><path d="M 28.234375 -6.125 C 27.421875 -5.5 26.5 -5.765625 25.796875 -6.546875 C 22 -10.84375 19.640625 -28.390625 13.5625 -28.390625 C 10.265625 -28.390625 6.3125 -25.25 3.40625 -22.234375 L 4.109375 -21.078125 C 5.96875 -22.34375 8.953125 -23.78125 11.265625 -21.84375 C 11.5 -21.65625 11.734375 -21.453125 11.96875 -21.21875 C 9.5625 -19.59375 7.359375 -17.96875 6.15625 -14.875 C 4.421875 -10.5 7.015625 -2.40625 -0.703125 3.328125 L 0.109375 4.453125 C 4.1875 1.75 7.015625 -0.3125 9.03125 -2.984375 C 9.71875 -3.984375 10.1875 -5.421875 10.5 -7.09375 L 15.609375 -7.09375 L 17.125 -8.796875 C 18.59375 -4.21875 20.109375 0 22.5 0 L 28.859375 -4.84375 Z M 11.15625 -11.625 C 11.5 -14.484375 11.96875 -17.4375 13.015625 -19.71875 C 14.296875 -17.625 15.265625 -14.640625 16.234375 -11.625 Z M 11.15625 -11.625 "/></g></g></g><g fill="#f3d06b" fill-opacity="1"><g transform="translate(251.503457, 224.957292)"><g><path d="M 23.28125 -27.765625 C 20.140625 -30.59375 14.765625 -27.65625 11.078125 -24.171875 L 11.890625 -22.78125 C 14.953125 -24.671875 16.421875 -24.59375 17.578125 -23.046875 C 18.625 -21.65625 16.421875 -14.015625 13.859375 -7.390625 C 10.8125 -12.125 8.640625 -29.015625 4.1875 -28.390625 L -2.78125 -22.578125 L -2.125 -21.34375 C 4.1875 -25.53125 5.421875 0 10.609375 0 L 17.890625 -5.921875 C 17.890625 -5.921875 27.03125 -23.984375 23.28125 -27.765625 Z M 23.28125 -27.765625 "/></g></g></g><g fill="#f5b651" fill-opacity="1"><g transform="translate(160.674056, 243.926412)"><g><path d="M 2.421875 -1.078125 C 2.617188 -1.078125 2.78125 -1.09375 2.90625 -1.125 C 3.039062 -1.15625 3.144531 -1.195312 3.21875 -1.25 C 3.300781 -1.3125 3.351562 -1.378906 3.375 -1.453125 C 3.40625 -1.535156 3.421875 -1.625 3.421875 -1.71875 C 3.421875 -1.925781 3.328125 -2.097656 3.140625 -2.234375 C 2.953125 -2.367188 2.625 -2.507812 2.15625 -2.65625 C 1.945312 -2.726562 1.738281 -2.8125 1.53125 -2.90625 C 1.332031 -3 1.148438 -3.113281 0.984375 -3.25 C 0.828125 -3.394531 0.695312 -3.566406 0.59375 -3.765625 C 0.488281 -3.972656 0.4375 -4.222656 0.4375 -4.515625 C 0.4375 -4.796875 0.488281 -5.050781 0.59375 -5.28125 C 0.707031 -5.519531 0.863281 -5.71875 1.0625 -5.875 C 1.257812 -6.039062 1.5 -6.164062 1.78125 -6.25 C 2.0625 -6.332031 2.378906 -6.375 2.734375 -6.375 C 3.148438 -6.375 3.507812 -6.328125 3.8125 -6.234375 C 4.125 -6.148438 4.378906 -6.054688 4.578125 -5.953125 L 4.171875 -4.84375 C 4.003906 -4.9375 3.8125 -5.015625 3.59375 -5.078125 C 3.382812 -5.148438 3.128906 -5.1875 2.828125 -5.1875 C 2.492188 -5.1875 2.25 -5.140625 2.09375 -5.046875 C 1.945312 -4.953125 1.875 -4.804688 1.875 -4.609375 C 1.875 -4.503906 1.898438 -4.410156 1.953125 -4.328125 C 2.015625 -4.253906 2.09375 -4.179688 2.1875 -4.109375 C 2.289062 -4.046875 2.40625 -3.988281 2.53125 -3.9375 C 2.664062 -3.894531 2.8125 -3.84375 2.96875 -3.78125 C 3.289062 -3.664062 3.570312 -3.550781 3.8125 -3.4375 C 4.050781 -3.320312 4.25 -3.1875 4.40625 -3.03125 C 4.5625 -2.875 4.675781 -2.6875 4.75 -2.46875 C 4.832031 -2.257812 4.875 -2.003906 4.875 -1.703125 C 4.875 -1.128906 4.671875 -0.679688 4.265625 -0.359375 C 3.859375 -0.0351562 3.242188 0.125 2.421875 0.125 C 2.140625 0.125 1.890625 0.109375 1.671875 0.078125 C 1.453125 0.046875 1.253906 0.0078125 1.078125 -0.03125 C 0.910156 -0.0820312 0.765625 -0.132812 0.640625 -0.1875 C 0.515625 -0.25 0.410156 -0.300781 0.328125 -0.34375 L 0.734375 -1.46875 C 0.921875 -1.363281 1.148438 -1.269531 1.421875 -1.1875 C 1.691406 -1.113281 2.023438 -1.078125 2.421875 -1.078125 Z M 2.421875 -1.078125 "/></g></g></g><g fill="#f5b651" fill-opacity="1"><g transform="translate(166.452088, 243.926412)"><g><path d="M 0.71875 -6.234375 L 2.125 -6.234375 L 2.125 0 L 0.71875 0 Z M 0.71875 -6.234375 "/></g></g></g><g fill="#f5b651" fill-opacity="1"><g transform="translate(169.836099, 243.926412)"><g><path d="M 4.90625 0 C 4.5 -0.71875 4.0625 -1.421875 3.59375 -2.109375 C 3.125 -2.804688 2.628906 -3.46875 2.109375 -4.09375 L 2.109375 0 L 0.71875 0 L 0.71875 -6.234375 L 1.859375 -6.234375 C 2.054688 -6.035156 2.273438 -5.789062 2.515625 -5.5 C 2.753906 -5.21875 3 -4.910156 3.25 -4.578125 C 3.5 -4.253906 3.742188 -3.914062 3.984375 -3.5625 C 4.234375 -3.21875 4.46875 -2.882812 4.6875 -2.5625 L 4.6875 -6.234375 L 6.078125 -6.234375 L 6.078125 0 Z M 4.90625 0 "/></g></g></g><g fill="#f5b651" fill-opacity="1"><g transform="translate(177.180138, 243.926412)"><g><path d="M 3.5625 0.125 C 2.550781 0.125 1.78125 -0.15625 1.25 -0.71875 C 0.71875 -1.28125 0.453125 -2.082031 0.453125 -3.125 C 0.453125 -3.632812 0.53125 -4.09375 0.6875 -4.5 C 0.851562 -4.90625 1.078125 -5.25 1.359375 -5.53125 C 1.640625 -5.8125 1.972656 -6.019531 2.359375 -6.15625 C 2.753906 -6.300781 3.179688 -6.375 3.640625 -6.375 C 3.898438 -6.375 4.140625 -6.351562 4.359375 -6.3125 C 4.578125 -6.28125 4.765625 -6.238281 4.921875 -6.1875 C 5.085938 -6.132812 5.222656 -6.082031 5.328125 -6.03125 C 5.429688 -5.976562 5.507812 -5.9375 5.5625 -5.90625 L 5.15625 -4.765625 C 4.96875 -4.867188 4.742188 -4.957031 4.484375 -5.03125 C 4.234375 -5.101562 3.945312 -5.140625 3.625 -5.140625 C 3.40625 -5.140625 3.191406 -5.101562 2.984375 -5.03125 C 2.773438 -4.957031 2.59375 -4.84375 2.4375 -4.6875 C 2.28125 -4.53125 2.148438 -4.320312 2.046875 -4.0625 C 1.953125 -3.8125 1.90625 -3.507812 1.90625 -3.15625 C 1.90625 -2.863281 1.9375 -2.59375 2 -2.34375 C 2.0625 -2.09375 2.160156 -1.878906 2.296875 -1.703125 C 2.441406 -1.523438 2.628906 -1.378906 2.859375 -1.265625 C 3.085938 -1.160156 3.363281 -1.109375 3.6875 -1.109375 C 3.894531 -1.109375 4.078125 -1.117188 4.234375 -1.140625 C 4.398438 -1.171875 4.546875 -1.203125 4.671875 -1.234375 C 4.796875 -1.265625 4.90625 -1.300781 5 -1.34375 C 5.09375 -1.382812 5.179688 -1.425781 5.265625 -1.46875 L 5.65625 -0.34375 C 5.457031 -0.21875 5.175781 -0.109375 4.8125 -0.015625 C 4.457031 0.078125 4.039062 0.125 3.5625 0.125 Z M 3.5625 0.125 "/></g></g></g><g fill="#f5b651" fill-opacity="1"><g transform="translate(183.552175, 243.926412)"><g><path d="M 0.71875 0 L 0.71875 -6.234375 L 4.9375 -6.234375 L 4.9375 -5.0625 L 2.125 -5.0625 L 2.125 -3.828125 L 4.609375 -3.828125 L 4.609375 -2.6875 L 2.125 -2.6875 L 2.125 -1.171875 L 5.140625 -1.171875 L 5.140625 0 Z M 0.71875 0 "/></g></g></g><g fill="#f5b651" fill-opacity="1"><g transform="translate(189.546203, 243.926412)"><g/></g></g><g fill="#f5b651" fill-opacity="1"><g transform="translate(192.246215, 243.926412)"><g><path d="M 4.46875 -4.59375 C 4.46875 -4.363281 4.421875 -4.144531 4.328125 -3.9375 C 4.234375 -3.726562 4.113281 -3.523438 3.96875 -3.328125 C 3.832031 -3.140625 3.671875 -2.953125 3.484375 -2.765625 C 3.304688 -2.585938 3.132812 -2.421875 2.96875 -2.265625 C 2.875 -2.179688 2.773438 -2.082031 2.671875 -1.96875 C 2.566406 -1.863281 2.460938 -1.757812 2.359375 -1.65625 C 2.265625 -1.550781 2.179688 -1.453125 2.109375 -1.359375 C 2.035156 -1.265625 1.988281 -1.1875 1.96875 -1.125 L 4.65625 -1.125 L 4.65625 0 L 0.5 0 C 0.488281 -0.0625 0.484375 -0.144531 0.484375 -0.25 C 0.484375 -0.351562 0.484375 -0.425781 0.484375 -0.46875 C 0.484375 -0.757812 0.523438 -1.023438 0.609375 -1.265625 C 0.703125 -1.503906 0.820312 -1.722656 0.96875 -1.921875 C 1.125 -2.128906 1.296875 -2.320312 1.484375 -2.5 C 1.671875 -2.6875 1.859375 -2.867188 2.046875 -3.046875 C 2.191406 -3.191406 2.328125 -3.320312 2.453125 -3.4375 C 2.578125 -3.5625 2.6875 -3.679688 2.78125 -3.796875 C 2.882812 -3.921875 2.960938 -4.039062 3.015625 -4.15625 C 3.066406 -4.269531 3.09375 -4.390625 3.09375 -4.515625 C 3.09375 -4.773438 3.015625 -4.957031 2.859375 -5.0625 C 2.710938 -5.175781 2.53125 -5.234375 2.3125 -5.234375 C 2.144531 -5.234375 1.988281 -5.207031 1.84375 -5.15625 C 1.707031 -5.101562 1.582031 -5.039062 1.46875 -4.96875 C 1.351562 -4.90625 1.253906 -4.835938 1.171875 -4.765625 C 1.085938 -4.691406 1.023438 -4.632812 0.984375 -4.59375 L 0.3125 -5.53125 C 0.582031 -5.78125 0.890625 -5.984375 1.234375 -6.140625 C 1.585938 -6.296875 1.960938 -6.375 2.359375 -6.375 C 2.734375 -6.375 3.050781 -6.332031 3.3125 -6.25 C 3.570312 -6.164062 3.785156 -6.046875 3.953125 -5.890625 C 4.128906 -5.742188 4.257812 -5.5625 4.34375 -5.34375 C 4.425781 -5.125 4.46875 -4.875 4.46875 -4.59375 Z M 4.46875 -4.59375 "/></g></g></g><g fill="#f5b651" fill-opacity="1"><g transform="translate(197.898248, 243.926412)"><g><path d="M 4.8125 -3.125 C 4.8125 -2.082031 4.609375 -1.28125 4.203125 -0.71875 C 3.804688 -0.15625 3.257812 0.125 2.5625 0.125 C 1.851562 0.125 1.300781 -0.15625 0.90625 -0.71875 C 0.507812 -1.28125 0.3125 -2.082031 0.3125 -3.125 C 0.3125 -3.65625 0.363281 -4.117188 0.46875 -4.515625 C 0.570312 -4.921875 0.722656 -5.257812 0.921875 -5.53125 C 1.117188 -5.8125 1.351562 -6.019531 1.625 -6.15625 C 1.90625 -6.300781 2.21875 -6.375 2.5625 -6.375 C 3.257812 -6.375 3.804688 -6.09375 4.203125 -5.53125 C 4.609375 -4.976562 4.8125 -4.175781 4.8125 -3.125 Z M 3.4375 -3.125 C 3.4375 -3.4375 3.421875 -3.71875 3.390625 -3.96875 C 3.359375 -4.226562 3.3125 -4.453125 3.25 -4.640625 C 3.1875 -4.828125 3.097656 -4.972656 2.984375 -5.078125 C 2.867188 -5.179688 2.726562 -5.234375 2.5625 -5.234375 C 2.382812 -5.234375 2.238281 -5.179688 2.125 -5.078125 C 2.019531 -4.972656 1.929688 -4.828125 1.859375 -4.640625 C 1.796875 -4.453125 1.75 -4.226562 1.71875 -3.96875 C 1.6875 -3.71875 1.671875 -3.4375 1.671875 -3.125 C 1.671875 -2.8125 1.6875 -2.523438 1.71875 -2.265625 C 1.75 -2.015625 1.796875 -1.796875 1.859375 -1.609375 C 1.929688 -1.421875 2.019531 -1.273438 2.125 -1.171875 C 2.238281 -1.078125 2.382812 -1.03125 2.5625 -1.03125 C 2.726562 -1.03125 2.867188 -1.078125 2.984375 -1.171875 C 3.097656 -1.273438 3.1875 -1.421875 3.25 -1.609375 C 3.3125 -1.796875 3.359375 -2.015625 3.390625 -2.265625 C 3.421875 -2.523438 3.4375 -2.8125 3.4375 -3.125 Z M 3.4375 -3.125 "/></g></g></g><g fill="#f5b651" fill-opacity="1"><g transform="translate(203.550281, 243.926412)"><g><path d="M 4.8125 -3.125 C 4.8125 -2.082031 4.609375 -1.28125 4.203125 -0.71875 C 3.804688 -0.15625 3.257812 0.125 2.5625 0.125 C 1.851562 0.125 1.300781 -0.15625 0.90625 -0.71875 C 0.507812 -1.28125 0.3125 -2.082031 0.3125 -3.125 C 0.3125 -3.65625 0.363281 -4.117188 0.46875 -4.515625 C 0.570312 -4.921875 0.722656 -5.257812 0.921875 -5.53125 C 1.117188 -5.8125 1.351562 -6.019531 1.625 -6.15625 C 1.90625 -6.300781 2.21875 -6.375 2.5625 -6.375 C 3.257812 -6.375 3.804688 -6.09375 4.203125 -5.53125 C 4.609375 -4.976562 4.8125 -4.175781 4.8125 -3.125 Z M 3.4375 -3.125 C 3.4375 -3.4375 3.421875 -3.71875 3.390625 -3.96875 C 3.359375 -4.226562 3.3125 -4.453125 3.25 -4.640625 C 3.1875 -4.828125 3.097656 -4.972656 2.984375 -5.078125 C 2.867188 -5.179688 2.726562 -5.234375 2.5625 -5.234375 C 2.382812 -5.234375 2.238281 -5.179688 2.125 -5.078125 C 2.019531 -4.972656 1.929688 -4.828125 1.859375 -4.640625 C 1.796875 -4.453125 1.75 -4.226562 1.71875 -3.96875 C 1.6875 -3.71875 1.671875 -3.4375 1.671875 -3.125 C 1.671875 -2.8125 1.6875 -2.523438 1.71875 -2.265625 C 1.75 -2.015625 1.796875 -1.796875 1.859375 -1.609375 C 1.929688 -1.421875 2.019531 -1.273438 2.125 -1.171875 C 2.238281 -1.078125 2.382812 -1.03125 2.5625 -1.03125 C 2.726562 -1.03125 2.867188 -1.078125 2.984375 -1.171875 C 3.097656 -1.273438 3.1875 -1.421875 3.25 -1.609375 C 3.3125 -1.796875 3.359375 -2.015625 3.390625 -2.265625 C 3.421875 -2.523438 3.4375 -2.8125 3.4375 -3.125 Z M 3.4375 -3.125 "/></g></g></g><g fill="#f5b651" fill-opacity="1"><g transform="translate(209.202312, 243.926412)"><g><path d="M 4.8125 -3.125 C 4.8125 -2.082031 4.609375 -1.28125 4.203125 -0.71875 C 3.804688 -0.15625 3.257812 0.125 2.5625 0.125 C 1.851562 0.125 1.300781 -0.15625 0.90625 -0.71875 C 0.507812 -1.28125 0.3125 -2.082031 0.3125 -3.125 C 0.3125 -3.65625 0.363281 -4.117188 0.46875 -4.515625 C 0.570312 -4.921875 0.722656 -5.257812 0.921875 -5.53125 C 1.117188 -5.8125 1.351562 -6.019531 1.625 -6.15625 C 1.90625 -6.300781 2.21875 -6.375 2.5625 -6.375 C 3.257812 -6.375 3.804688 -6.09375 4.203125 -5.53125 C 4.609375 -4.976562 4.8125 -4.175781 4.8125 -3.125 Z M 3.4375 -3.125 C 3.4375 -3.4375 3.421875 -3.71875 3.390625 -3.96875 C 3.359375 -4.226562 3.3125 -4.453125 3.25 -4.640625 C 3.1875 -4.828125 3.097656 -4.972656 2.984375 -5.078125 C 2.867188 -5.179688 2.726562 -5.234375 2.5625 -5.234375 C 2.382812 -5.234375 2.238281 -5.179688 2.125 -5.078125 C 2.019531 -4.972656 1.929688 -4.828125 1.859375 -4.640625 C 1.796875 -4.453125 1.75 -4.226562 1.71875 -3.96875 C 1.6875 -3.71875 1.671875 -3.4375 1.671875 -3.125 C 1.671875 -2.8125 1.6875 -2.523438 1.71875 -2.265625 C 1.75 -2.015625 1.796875 -1.796875 1.859375 -1.609375 C 1.929688 -1.421875 2.019531 -1.273438 2.125 -1.171875 C 2.238281 -1.078125 2.382812 -1.03125 2.5625 -1.03125 C 2.726562 -1.03125 2.867188 -1.078125 2.984375 -1.171875 C 3.097656 -1.273438 3.1875 -1.421875 3.25 -1.609375 C 3.3125 -1.796875 3.359375 -2.015625 3.390625 -2.265625 C 3.421875 -2.523438 3.4375 -2.8125 3.4375 -3.125 Z M 3.4375 -3.125 "/></g></g></g><g fill="#f5b651" fill-opacity="1"><g transform="translate(91.716042, 259.475109)"><g><path d="M 0.71875 0 L 0.71875 -6.234375 L 4.9375 -6.234375 L 4.9375 -5.0625 L 2.125 -5.0625 L 2.125 -3.828125 L 4.609375 -3.828125 L 4.609375 -2.6875 L 2.125 -2.6875 L 2.125 -1.171875 L 5.140625 -1.171875 L 5.140625 0 Z M 0.71875 0 "/></g></g></g><g fill="#f5b651" fill-opacity="1"><g transform="translate(99.447097, 259.475109)"><g><path d="M 4.296875 0 C 4.128906 -0.34375 3.941406 -0.691406 3.734375 -1.046875 C 3.523438 -1.410156 3.285156 -1.78125 3.015625 -2.15625 C 2.929688 -2.039062 2.820312 -1.882812 2.6875 -1.6875 C 2.5625 -1.5 2.429688 -1.296875 2.296875 -1.078125 C 2.171875 -0.867188 2.050781 -0.664062 1.9375 -0.46875 C 1.820312 -0.269531 1.738281 -0.113281 1.6875 0 L 0.09375 0 C 0.351562 -0.488281 0.65625 -1 1 -1.53125 C 1.351562 -2.0625 1.75 -2.628906 2.1875 -3.234375 L 0.1875 -6.234375 L 1.875 -6.234375 L 3.09375 -4.296875 L 4.28125 -6.234375 L 5.890625 -6.234375 L 3.90625 -3.21875 C 4.40625 -2.5625 4.828125 -1.953125 5.171875 -1.390625 C 5.515625 -0.835938 5.785156 -0.375 5.984375 0 Z M 4.296875 0 "/></g></g></g><g fill="#f5b651" fill-opacity="1"><g transform="translate(107.799154, 259.475109)"><g><path d="M 2.59375 -6.3125 C 3.519531 -6.3125 4.234375 -6.144531 4.734375 -5.8125 C 5.234375 -5.488281 5.484375 -4.957031 5.484375 -4.21875 C 5.484375 -3.46875 5.226562 -2.925781 4.71875 -2.59375 C 4.21875 -2.257812 3.5 -2.09375 2.5625 -2.09375 L 2.125 -2.09375 L 2.125 0 L 0.71875 0 L 0.71875 -6.140625 C 1.019531 -6.203125 1.34375 -6.242188 1.6875 -6.265625 C 2.03125 -6.296875 2.332031 -6.3125 2.59375 -6.3125 Z M 2.6875 -5.109375 C 2.582031 -5.109375 2.476562 -5.101562 2.375 -5.09375 C 2.28125 -5.09375 2.195312 -5.085938 2.125 -5.078125 L 2.125 -3.28125 L 2.5625 -3.28125 C 3.050781 -3.28125 3.414062 -3.347656 3.65625 -3.484375 C 3.90625 -3.617188 4.03125 -3.863281 4.03125 -4.21875 C 4.03125 -4.394531 4 -4.539062 3.9375 -4.65625 C 3.875 -4.769531 3.78125 -4.859375 3.65625 -4.921875 C 3.539062 -4.992188 3.398438 -5.039062 3.234375 -5.0625 C 3.066406 -5.09375 2.882812 -5.109375 2.6875 -5.109375 Z M 2.6875 -5.109375 "/></g></g></g><g fill="#f5b651" fill-opacity="1"><g transform="translate(115.872215, 259.475109)"><g><path d="M 0.71875 0 L 0.71875 -6.234375 L 4.9375 -6.234375 L 4.9375 -5.0625 L 2.125 -5.0625 L 2.125 -3.828125 L 4.609375 -3.828125 L 4.609375 -2.6875 L 2.125 -2.6875 L 2.125 -1.171875 L 5.140625 -1.171875 L 5.140625 0 Z M 0.71875 0 "/></g></g></g><g fill="#f5b651" fill-opacity="1"><g transform="translate(123.603271, 259.475109)"><g><path d="M 2.546875 -6.3125 C 3.484375 -6.3125 4.195312 -6.144531 4.6875 -5.8125 C 5.1875 -5.476562 5.4375 -4.957031 5.4375 -4.25 C 5.4375 -3.8125 5.335938 -3.457031 5.140625 -3.1875 C 4.941406 -2.914062 4.65625 -2.703125 4.28125 -2.546875 C 4.40625 -2.390625 4.535156 -2.207031 4.671875 -2 C 4.804688 -1.800781 4.941406 -1.59375 5.078125 -1.375 C 5.210938 -1.15625 5.34375 -0.925781 5.46875 -0.6875 C 5.59375 -0.457031 5.710938 -0.226562 5.828125 0 L 4.25 0 C 4.132812 -0.207031 4.015625 -0.414062 3.890625 -0.625 C 3.773438 -0.832031 3.65625 -1.035156 3.53125 -1.234375 C 3.414062 -1.429688 3.296875 -1.617188 3.171875 -1.796875 C 3.054688 -1.972656 2.9375 -2.132812 2.8125 -2.28125 L 2.125 -2.28125 L 2.125 0 L 0.71875 0 L 0.71875 -6.140625 C 1.019531 -6.203125 1.332031 -6.242188 1.65625 -6.265625 C 1.988281 -6.296875 2.285156 -6.3125 2.546875 -6.3125 Z M 2.625 -5.109375 C 2.519531 -5.109375 2.425781 -5.101562 2.34375 -5.09375 C 2.269531 -5.09375 2.195312 -5.085938 2.125 -5.078125 L 2.125 -3.390625 L 2.515625 -3.390625 C 3.046875 -3.390625 3.425781 -3.453125 3.65625 -3.578125 C 3.882812 -3.710938 4 -3.941406 4 -4.265625 C 4 -4.566406 3.878906 -4.78125 3.640625 -4.90625 C 3.410156 -5.039062 3.070312 -5.109375 2.625 -5.109375 Z M 2.625 -5.109375 "/></g></g></g><g fill="#f5b651" fill-opacity="1"><g transform="translate(131.883334, 259.475109)"><g><path d="M 0.71875 -6.234375 L 2.125 -6.234375 L 2.125 0 L 0.71875 0 Z M 0.71875 -6.234375 "/></g></g></g><g fill="#f5b651" fill-opacity="1"><g transform="translate(137.00437, 259.475109)"><g><path d="M 0.71875 0 L 0.71875 -6.234375 L 4.9375 -6.234375 L 4.9375 -5.0625 L 2.125 -5.0625 L 2.125 -3.828125 L 4.609375 -3.828125 L 4.609375 -2.6875 L 2.125 -2.6875 L 2.125 -1.171875 L 5.140625 -1.171875 L 5.140625 0 Z M 0.71875 0 "/></g></g></g><g fill="#f5b651" fill-opacity="1"><g transform="translate(144.735423, 259.475109)"><g><path d="M 4.90625 0 C 4.5 -0.71875 4.0625 -1.421875 3.59375 -2.109375 C 3.125 -2.804688 2.628906 -3.46875 2.109375 -4.09375 L 2.109375 0 L 0.71875 0 L 0.71875 -6.234375 L 1.859375 -6.234375 C 2.054688 -6.035156 2.273438 -5.789062 2.515625 -5.5 C 2.753906 -5.21875 3 -4.910156 3.25 -4.578125 C 3.5 -4.253906 3.742188 -3.914062 3.984375 -3.5625 C 4.234375 -3.21875 4.46875 -2.882812 4.6875 -2.5625 L 4.6875 -6.234375 L 6.078125 -6.234375 L 6.078125 0 Z M 4.90625 0 "/></g></g></g><g fill="#f5b651" fill-opacity="1"><g transform="translate(153.816492, 259.475109)"><g><path d="M 3.5625 0.125 C 2.550781 0.125 1.78125 -0.15625 1.25 -0.71875 C 0.71875 -1.28125 0.453125 -2.082031 0.453125 -3.125 C 0.453125 -3.632812 0.53125 -4.09375 0.6875 -4.5 C 0.851562 -4.90625 1.078125 -5.25 1.359375 -5.53125 C 1.640625 -5.8125 1.972656 -6.019531 2.359375 -6.15625 C 2.753906 -6.300781 3.179688 -6.375 3.640625 -6.375 C 3.898438 -6.375 4.140625 -6.351562 4.359375 -6.3125 C 4.578125 -6.28125 4.765625 -6.238281 4.921875 -6.1875 C 5.085938 -6.132812 5.222656 -6.082031 5.328125 -6.03125 C 5.429688 -5.976562 5.507812 -5.9375 5.5625 -5.90625 L 5.15625 -4.765625 C 4.96875 -4.867188 4.742188 -4.957031 4.484375 -5.03125 C 4.234375 -5.101562 3.945312 -5.140625 3.625 -5.140625 C 3.40625 -5.140625 3.191406 -5.101562 2.984375 -5.03125 C 2.773438 -4.957031 2.59375 -4.84375 2.4375 -4.6875 C 2.28125 -4.53125 2.148438 -4.320312 2.046875 -4.0625 C 1.953125 -3.8125 1.90625 -3.507812 1.90625 -3.15625 C 1.90625 -2.863281 1.9375 -2.59375 2 -2.34375 C 2.0625 -2.09375 2.160156 -1.878906 2.296875 -1.703125 C 2.441406 -1.523438 2.628906 -1.378906 2.859375 -1.265625 C 3.085938 -1.160156 3.363281 -1.109375 3.6875 -1.109375 C 3.894531 -1.109375 4.078125 -1.117188 4.234375 -1.140625 C 4.398438 -1.171875 4.546875 -1.203125 4.671875 -1.234375 C 4.796875 -1.265625 4.90625 -1.300781 5 -1.34375 C 5.09375 -1.382812 5.179688 -1.425781 5.265625 -1.46875 L 5.65625 -0.34375 C 5.457031 -0.21875 5.175781 -0.109375 4.8125 -0.015625 C 4.457031 0.078125 4.039062 0.125 3.5625 0.125 Z M 3.5625 0.125 "/></g></g></g><g fill="#f5b651" fill-opacity="1"><g transform="translate(161.925558, 259.475109)"><g><path d="M 0.71875 0 L 0.71875 -6.234375 L 4.9375 -6.234375 L 4.9375 -5.0625 L 2.125 -5.0625 L 2.125 -3.828125 L 4.609375 -3.828125 L 4.609375 -2.6875 L 2.125 -2.6875 L 2.125 -1.171875 L 5.140625 -1.171875 L 5.140625 0 Z M 0.71875 0 "/></g></g></g><g fill="#f5b651" fill-opacity="1"><g transform="translate(169.656613, 259.475109)"><g/></g></g><g fill="#f5b651" fill-opacity="1"><g transform="translate(174.093648, 259.475109)"><g><path d="M 0.71875 0 L 0.71875 -6.234375 L 4.9375 -6.234375 L 4.9375 -5.0625 L 2.125 -5.0625 L 2.125 -3.828125 L 4.609375 -3.828125 L 4.609375 -2.6875 L 2.125 -2.6875 L 2.125 -1.171875 L 5.140625 -1.171875 L 5.140625 0 Z M 0.71875 0 "/></g></g></g><g fill="#f5b651" fill-opacity="1"><g transform="translate(181.824703, 259.475109)"><g><path d="M 4.296875 0 C 4.128906 -0.34375 3.941406 -0.691406 3.734375 -1.046875 C 3.523438 -1.410156 3.285156 -1.78125 3.015625 -2.15625 C 2.929688 -2.039062 2.820312 -1.882812 2.6875 -1.6875 C 2.5625 -1.5 2.429688 -1.296875 2.296875 -1.078125 C 2.171875 -0.867188 2.050781 -0.664062 1.9375 -0.46875 C 1.820312 -0.269531 1.738281 -0.113281 1.6875 0 L 0.09375 0 C 0.351562 -0.488281 0.65625 -1 1 -1.53125 C 1.351562 -2.0625 1.75 -2.628906 2.1875 -3.234375 L 0.1875 -6.234375 L 1.875 -6.234375 L 3.09375 -4.296875 L 4.28125 -6.234375 L 5.890625 -6.234375 L 3.90625 -3.21875 C 4.40625 -2.5625 4.828125 -1.953125 5.171875 -1.390625 C 5.515625 -0.835938 5.785156 -0.375 5.984375 0 Z M 4.296875 0 "/></g></g></g><g fill="#f5b651" fill-opacity="1"><g transform="translate(190.176756, 259.475109)"><g><path d="M 1.90625 -3.125 C 1.90625 -2.8125 1.941406 -2.53125 2.015625 -2.28125 C 2.085938 -2.039062 2.191406 -1.832031 2.328125 -1.65625 C 2.472656 -1.476562 2.644531 -1.34375 2.84375 -1.25 C 3.050781 -1.15625 3.289062 -1.109375 3.5625 -1.109375 C 3.8125 -1.109375 4.039062 -1.15625 4.25 -1.25 C 4.457031 -1.34375 4.628906 -1.476562 4.765625 -1.65625 C 4.910156 -1.832031 5.019531 -2.039062 5.09375 -2.28125 C 5.175781 -2.53125 5.21875 -2.8125 5.21875 -3.125 C 5.21875 -3.425781 5.175781 -3.703125 5.09375 -3.953125 C 5.019531 -4.203125 4.910156 -4.414062 4.765625 -4.59375 C 4.628906 -4.769531 4.457031 -4.90625 4.25 -5 C 4.039062 -5.09375 3.8125 -5.140625 3.5625 -5.140625 C 3.289062 -5.140625 3.050781 -5.085938 2.84375 -4.984375 C 2.644531 -4.890625 2.472656 -4.753906 2.328125 -4.578125 C 2.191406 -4.398438 2.085938 -4.1875 2.015625 -3.9375 C 1.941406 -3.695312 1.90625 -3.425781 1.90625 -3.125 Z M 6.65625 -3.125 C 6.65625 -2.6875 6.601562 -2.289062 6.5 -1.9375 C 6.394531 -1.582031 6.242188 -1.273438 6.046875 -1.015625 C 5.847656 -0.753906 5.613281 -0.535156 5.34375 -0.359375 C 5.070312 -0.179688 4.773438 -0.0546875 4.453125 0.015625 C 4.484375 0.140625 4.550781 0.238281 4.65625 0.3125 C 4.757812 0.382812 4.890625 0.441406 5.046875 0.484375 C 5.203125 0.535156 5.378906 0.570312 5.578125 0.59375 C 5.785156 0.625 6.007812 0.648438 6.25 0.671875 L 5.96875 1.6875 C 5.5 1.675781 5.097656 1.628906 4.765625 1.546875 C 4.429688 1.472656 4.148438 1.367188 3.921875 1.234375 C 3.691406 1.109375 3.507812 0.945312 3.375 0.75 C 3.238281 0.5625 3.132812 0.34375 3.0625 0.09375 C 2.6875 0.0390625 2.335938 -0.0625 2.015625 -0.21875 C 1.703125 -0.375 1.425781 -0.585938 1.1875 -0.859375 C 0.957031 -1.128906 0.773438 -1.453125 0.640625 -1.828125 C 0.515625 -2.210938 0.453125 -2.644531 0.453125 -3.125 C 0.453125 -3.65625 0.535156 -4.125 0.703125 -4.53125 C 0.867188 -4.9375 1.09375 -5.273438 1.375 -5.546875 C 1.664062 -5.828125 2 -6.035156 2.375 -6.171875 C 2.75 -6.304688 3.144531 -6.375 3.5625 -6.375 C 3.976562 -6.375 4.375 -6.304688 4.75 -6.171875 C 5.132812 -6.035156 5.46875 -5.828125 5.75 -5.546875 C 6.03125 -5.273438 6.25 -4.9375 6.40625 -4.53125 C 6.570312 -4.125 6.65625 -3.65625 6.65625 -3.125 Z M 6.65625 -3.125 "/></g></g></g><g fill="#f5b651" fill-opacity="1"><g transform="translate(199.563828, 259.475109)"><g><path d="M 3.15625 0.125 C 2.71875 0.125 2.335938 0.0625 2.015625 -0.0625 C 1.703125 -0.1875 1.441406 -0.359375 1.234375 -0.578125 C 1.023438 -0.796875 0.867188 -1.054688 0.765625 -1.359375 C 0.671875 -1.660156 0.625 -1.992188 0.625 -2.359375 L 0.625 -6.234375 L 2.03125 -6.234375 L 2.03125 -2.46875 C 2.03125 -2.21875 2.054688 -2.003906 2.109375 -1.828125 C 2.171875 -1.648438 2.25 -1.503906 2.34375 -1.390625 C 2.445312 -1.285156 2.566406 -1.207031 2.703125 -1.15625 C 2.847656 -1.113281 3.003906 -1.09375 3.171875 -1.09375 C 3.515625 -1.09375 3.789062 -1.195312 4 -1.40625 C 4.21875 -1.613281 4.328125 -1.96875 4.328125 -2.46875 L 4.328125 -6.234375 L 5.734375 -6.234375 L 5.734375 -2.359375 C 5.734375 -1.992188 5.679688 -1.65625 5.578125 -1.34375 C 5.472656 -1.039062 5.316406 -0.78125 5.109375 -0.5625 C 4.898438 -0.34375 4.632812 -0.171875 4.3125 -0.046875 C 3.988281 0.0664062 3.601562 0.125 3.15625 0.125 Z M 3.15625 0.125 "/></g></g></g><g fill="#f5b651" fill-opacity="1"><g transform="translate(208.203888, 259.475109)"><g><path d="M 0.71875 -6.234375 L 2.125 -6.234375 L 2.125 0 L 0.71875 0 Z M 0.71875 -6.234375 "/></g></g></g><g fill="#f5b651" fill-opacity="1"><g transform="translate(213.324924, 259.475109)"><g><path d="M 2.421875 -1.078125 C 2.617188 -1.078125 2.78125 -1.09375 2.90625 -1.125 C 3.039062 -1.15625 3.144531 -1.195312 3.21875 -1.25 C 3.300781 -1.3125 3.351562 -1.378906 3.375 -1.453125 C 3.40625 -1.535156 3.421875 -1.625 3.421875 -1.71875 C 3.421875 -1.925781 3.328125 -2.097656 3.140625 -2.234375 C 2.953125 -2.367188 2.625 -2.507812 2.15625 -2.65625 C 1.945312 -2.726562 1.738281 -2.8125 1.53125 -2.90625 C 1.332031 -3 1.148438 -3.113281 0.984375 -3.25 C 0.828125 -3.394531 0.695312 -3.566406 0.59375 -3.765625 C 0.488281 -3.972656 0.4375 -4.222656 0.4375 -4.515625 C 0.4375 -4.796875 0.488281 -5.050781 0.59375 -5.28125 C 0.707031 -5.519531 0.863281 -5.71875 1.0625 -5.875 C 1.257812 -6.039062 1.5 -6.164062 1.78125 -6.25 C 2.0625 -6.332031 2.378906 -6.375 2.734375 -6.375 C 3.148438 -6.375 3.507812 -6.328125 3.8125 -6.234375 C 4.125 -6.148438 4.378906 -6.054688 4.578125 -5.953125 L 4.171875 -4.84375 C 4.003906 -4.9375 3.8125 -5.015625 3.59375 -5.078125 C 3.382812 -5.148438 3.128906 -5.1875 2.828125 -5.1875 C 2.492188 -5.1875 2.25 -5.140625 2.09375 -5.046875 C 1.945312 -4.953125 1.875 -4.804688 1.875 -4.609375 C 1.875 -4.503906 1.898438 -4.410156 1.953125 -4.328125 C 2.015625 -4.253906 2.09375 -4.179688 2.1875 -4.109375 C 2.289062 -4.046875 2.40625 -3.988281 2.53125 -3.9375 C 2.664062 -3.894531 2.8125 -3.84375 2.96875 -3.78125 C 3.289062 -3.664062 3.570312 -3.550781 3.8125 -3.4375 C 4.050781 -3.320312 4.25 -3.1875 4.40625 -3.03125 C 4.5625 -2.875 4.675781 -2.6875 4.75 -2.46875 C 4.832031 -2.257812 4.875 -2.003906 4.875 -1.703125 C 4.875 -1.128906 4.671875 -0.679688 4.265625 -0.359375 C 3.859375 -0.0351562 3.242188 0.125 2.421875 0.125 C 2.140625 0.125 1.890625 0.109375 1.671875 0.078125 C 1.453125 0.046875 1.253906 0.0078125 1.078125 -0.03125 C 0.910156 -0.0820312 0.765625 -0.132812 0.640625 -0.1875 C 0.515625 -0.25 0.410156 -0.300781 0.328125 -0.34375 L 0.734375 -1.46875 C 0.921875 -1.363281 1.148438 -1.269531 1.421875 -1.1875 C 1.691406 -1.113281 2.023438 -1.078125 2.421875 -1.078125 Z M 2.421875 -1.078125 "/></g></g></g><g fill="#f5b651" fill-opacity="1"><g transform="translate(220.839984, 259.475109)"><g><path d="M 0.71875 -6.234375 L 2.125 -6.234375 L 2.125 0 L 0.71875 0 Z M 0.71875 -6.234375 "/></g></g></g><g fill="#f5b651" fill-opacity="1"><g transform="translate(225.961021, 259.475109)"><g><path d="M 5.34375 -6.234375 L 5.34375 -5.046875 L 3.46875 -5.046875 L 3.46875 0 L 2.0625 0 L 2.0625 -5.046875 L 0.1875 -5.046875 L 0.1875 -6.234375 Z M 5.34375 -6.234375 "/></g></g></g><g fill="#f5b651" fill-opacity="1"><g transform="translate(233.764083, 259.475109)"><g><path d="M 0.71875 0 L 0.71875 -6.234375 L 4.9375 -6.234375 L 4.9375 -5.0625 L 2.125 -5.0625 L 2.125 -3.828125 L 4.609375 -3.828125 L 4.609375 -2.6875 L 2.125 -2.6875 L 2.125 -1.171875 L 5.140625 -1.171875 L 5.140625 0 Z M 0.71875 0 "/></g></g></g><g fill="#f5b651" fill-opacity="1"><g transform="translate(241.495138, 259.475109)"><g/></g></g><g fill="#f5b651" fill-opacity="1"><g transform="translate(245.932173, 259.475109)"><g><path d="M 5.34375 -6.234375 L 5.34375 -5.046875 L 3.46875 -5.046875 L 3.46875 0 L 2.0625 0 L 2.0625 -5.046875 L 0.1875 -5.046875 L 0.1875 -6.234375 Z M 5.34375 -6.234375 "/></g></g></g><g fill="#f5b651" fill-opacity="1"><g transform="translate(253.735235, 259.475109)"><g><path d="M 4.890625 0 C 4.828125 -0.21875 4.753906 -0.441406 4.671875 -0.671875 C 4.585938 -0.898438 4.507812 -1.125 4.4375 -1.34375 L 2 -1.34375 C 1.925781 -1.125 1.847656 -0.898438 1.765625 -0.671875 C 1.679688 -0.441406 1.609375 -0.21875 1.546875 0 L 0.09375 0 C 0.320312 -0.675781 0.539062 -1.296875 0.75 -1.859375 C 0.96875 -2.429688 1.175781 -2.96875 1.375 -3.46875 C 1.570312 -3.976562 1.769531 -4.457031 1.96875 -4.90625 C 2.164062 -5.363281 2.367188 -5.804688 2.578125 -6.234375 L 3.921875 -6.234375 C 4.117188 -5.804688 4.316406 -5.363281 4.515625 -4.90625 C 4.710938 -4.457031 4.910156 -3.976562 5.109375 -3.46875 C 5.316406 -2.96875 5.523438 -2.429688 5.734375 -1.859375 C 5.941406 -1.296875 6.164062 -0.675781 6.40625 0 Z M 3.21875 -4.828125 C 3.1875 -4.734375 3.140625 -4.609375 3.078125 -4.453125 C 3.015625 -4.296875 2.941406 -4.113281 2.859375 -3.90625 C 2.785156 -3.707031 2.703125 -3.484375 2.609375 -3.234375 C 2.515625 -2.992188 2.421875 -2.738281 2.328125 -2.46875 L 4.109375 -2.46875 C 4.003906 -2.738281 3.90625 -2.992188 3.8125 -3.234375 C 3.726562 -3.484375 3.644531 -3.707031 3.5625 -3.90625 C 3.488281 -4.113281 3.421875 -4.296875 3.359375 -4.453125 C 3.296875 -4.609375 3.25 -4.734375 3.21875 -4.828125 Z M 3.21875 -4.828125 "/></g></g></g><g fill="#f5b651" fill-opacity="1"><g transform="translate(262.501294, 259.475109)"><g><path d="M 2.421875 -1.078125 C 2.617188 -1.078125 2.78125 -1.09375 2.90625 -1.125 C 3.039062 -1.15625 3.144531 -1.195312 3.21875 -1.25 C 3.300781 -1.3125 3.351562 -1.378906 3.375 -1.453125 C 3.40625 -1.535156 3.421875 -1.625 3.421875 -1.71875 C 3.421875 -1.925781 3.328125 -2.097656 3.140625 -2.234375 C 2.953125 -2.367188 2.625 -2.507812 2.15625 -2.65625 C 1.945312 -2.726562 1.738281 -2.8125 1.53125 -2.90625 C 1.332031 -3 1.148438 -3.113281 0.984375 -3.25 C 0.828125 -3.394531 0.695312 -3.566406 0.59375 -3.765625 C 0.488281 -3.972656 0.4375 -4.222656 0.4375 -4.515625 C 0.4375 -4.796875 0.488281 -5.050781 0.59375 -5.28125 C 0.707031 -5.519531 0.863281 -5.71875 1.0625 -5.875 C 1.257812 -6.039062 1.5 -6.164062 1.78125 -6.25 C 2.0625 -6.332031 2.378906 -6.375 2.734375 -6.375 C 3.148438 -6.375 3.507812 -6.328125 3.8125 -6.234375 C 4.125 -6.148438 4.378906 -6.054688 4.578125 -5.953125 L 4.171875 -4.84375 C 4.003906 -4.9375 3.8125 -5.015625 3.59375 -5.078125 C 3.382812 -5.148438 3.128906 -5.1875 2.828125 -5.1875 C 2.492188 -5.1875 2.25 -5.140625 2.09375 -5.046875 C 1.945312 -4.953125 1.875 -4.804688 1.875 -4.609375 C 1.875 -4.503906 1.898438 -4.410156 1.953125 -4.328125 C 2.015625 -4.253906 2.09375 -4.179688 2.1875 -4.109375 C 2.289062 -4.046875 2.40625 -3.988281 2.53125 -3.9375 C 2.664062 -3.894531 2.8125 -3.84375 2.96875 -3.78125 C 3.289062 -3.664062 3.570312 -3.550781 3.8125 -3.4375 C 4.050781 -3.320312 4.25 -3.1875 4.40625 -3.03125 C 4.5625 -2.875 4.675781 -2.6875 4.75 -2.46875 C 4.832031 -2.257812 4.875 -2.003906 4.875 -1.703125 C 4.875 -1.128906 4.671875 -0.679688 4.265625 -0.359375 C 3.859375 -0.0351562 3.242188 0.125 2.421875 0.125 C 2.140625 0.125 1.890625 0.109375 1.671875 0.078125 C 1.453125 0.046875 1.253906 0.0078125 1.078125 -0.03125 C 0.910156 -0.0820312 0.765625 -0.132812 0.640625 -0.1875 C 0.515625 -0.25 0.410156 -0.300781 0.328125 -0.34375 L 0.734375 -1.46875 C 0.921875 -1.363281 1.148438 -1.269531 1.421875 -1.1875 C 1.691406 -1.113281 2.023438 -1.078125 2.421875 -1.078125 Z M 2.421875 -1.078125 "/></g></g></g><g fill="#f5b651" fill-opacity="1"><g transform="translate(270.016354, 259.475109)"><g><path d="M 5.34375 -6.234375 L 5.34375 -5.046875 L 3.46875 -5.046875 L 3.46875 0 L 2.0625 0 L 2.0625 -5.046875 L 0.1875 -5.046875 L 0.1875 -6.234375 Z M 5.34375 -6.234375 "/></g></g></g><g fill="#f5b651" fill-opacity="1"><g transform="translate(277.819416, 259.475109)"><g><path d="M 0.71875 0 L 0.71875 -6.234375 L 4.9375 -6.234375 L 4.9375 -5.0625 L 2.125 -5.0625 L 2.125 -3.828125 L 4.609375 -3.828125 L 4.609375 -2.6875 L 2.125 -2.6875 L 2.125 -1.171875 L 5.140625 -1.171875 L 5.140625 0 Z M 0.71875 0 "/></g></g></g><g clip-path="url(#bafbf99c44)"><path fill="#f5b651" d="M 187.46875 111.054688 C 187.476562 111.042969 187.488281 111.03125 187.5 111.03125 C 187.511719 111.03125 187.527344 111.042969 187.53125 111.054688 C 187.828125 111.859375 190.070312 117.90625 192.015625 120.007812 C 193.957031 122.097656 199.230469 124.175781 199.941406 124.453125 C 199.953125 124.457031 199.960938 124.46875 199.960938 124.480469 C 199.960938 124.492188 199.953125 124.507812 199.941406 124.511719 C 199.222656 124.792969 193.832031 126.949219 191.894531 129.042969 C 189.953125 131.132812 187.828125 137.070312 187.535156 137.902344 C 187.527344 137.914062 187.515625 137.921875 187.5 137.921875 C 187.488281 137.921875 187.476562 137.914062 187.472656 137.898438 C 187.230469 137.070312 185.476562 131.242188 183.539062 129.148438 C 181.59375 127.046875 175.777344 124.785156 175.054688 124.507812 C 175.039062 124.503906 175.035156 124.492188 175.03125 124.480469 C 175.03125 124.464844 175.039062 124.453125 175.050781 124.449219 C 175.746094 124.132812 181.292969 121.574219 183.238281 119.472656 C 185.179688 117.378906 187.195312 111.824219 187.46875 111.054688 Z M 187.46875 111.054688 " fill-opacity="1" fill-rule="evenodd"/></g></svg>